<svg id="globe" xmlns="http://www.w3.org/2000/svg" width="75.515" height="75.498" viewBox="0 0 75.515 75.498">
  <g id="Group_93" data-name="Group 93" transform="translate(39.973 0)">
    <g id="Group_92" data-name="Group 92">
      <path id="Path_178" data-name="Path 178" d="M6.5,8.234c-.579-.853-1.159-1.667-1.733-2.441S3.623,4.288,3.072,3.6s-1.089-1.335-1.6-1.936S.462.507,0,0V17.829c1-.07,1.968-.185,2.913-.339s1.861-.347,2.75-.573,1.75-.484,2.581-.768,1.634-.594,2.406-.923q-.507-.988-1.027-1.921T8.577,11.5Q8.053,10.619,7.53,9.8T6.5,8.234Z" transform="translate(0 0)" fill="#fff"/>
    </g>
  </g>
  <g id="Group_95" data-name="Group 95" transform="translate(46.623 0.973)">
    <g id="Group_94" data-name="Group 94">
      <path id="Path_179" data-name="Path 179" d="M0,0Q.416.523.841,1.077T1.7,2.214q.432.584.868,1.2t.873,1.254Q4.077,5.6,4.68,6.545t1.17,1.9q.567.951,1.1,1.908t1.025,1.918c.747-.431,1.451-.871,2.112-1.31s1.277-.879,1.849-1.307,1.1-.847,1.575-1.246.91-.778,1.292-1.127a37.846,37.846,0,0,0-3.4-2.439A37.449,37.449,0,0,0,7.785,2.8,37.315,37.315,0,0,0,3.974,1.186,37.417,37.417,0,0,0,0,0Z" transform="translate(0)" fill="#fff"/>
    </g>
  </g>
  <g id="Group_97" data-name="Group 97" transform="translate(39.973 19.241)">
    <g id="Group_96" data-name="Group 96">
      <path id="Path_180" data-name="Path 180" d="M12.529,0Q11.011.651,9.462,1.169t-3.12.9q-1.571.38-3.159.621T0,3.028V16.18H16.449a43.558,43.558,0,0,0-.469-4.35c-.225-1.42-.514-2.809-.857-4.163s-.738-2.673-1.174-3.952S13.036,1.2,12.529,0Z" fill="#fff"/>
    </g>
  </g>
  <g id="Group_99" data-name="Group 99" transform="translate(39.973 39.852)">
    <g id="Group_98" data-name="Group 98">
      <path id="Path_181" data-name="Path 181" d="M0,0V13.407q1.6.1,3.185.341t3.16.622q1.572.38,3.121.9t3.068,1.17c.513-1.214,1-2.472,1.438-3.771s.839-2.638,1.183-4.014.633-2.787.854-4.231A43.415,43.415,0,0,0,16.462,0H0Z" fill="#fff"/>
    </g>
  </g>
  <g id="Group_101" data-name="Group 101" transform="translate(24.881)">
    <g id="Group_100" data-name="Group 100">
      <path id="Path_182" data-name="Path 182" d="M4.164,8.234q-.512.754-1.037,1.573t-1.05,1.7q-.526.878-1.048,1.815T0,15.246q1.3.551,2.612.989T5.262,17q1.333.323,2.683.532t2.715.3V0C10.2.507,9.706,1.062,9.192,1.663S8.14,2.909,7.588,3.6,6.47,5.021,5.9,5.794,4.743,7.382,4.164,8.234Z" fill="#fff"/>
    </g>
  </g>
  <g id="Group_103" data-name="Group 103" transform="translate(19.093 19.249)">
    <g id="Group_102" data-name="Group 102">
      <path id="Path_183" data-name="Path 183" d="M3.916,0C3.41,1.2,2.933,2.435,2.5,3.714s-.831,2.6-1.173,3.95S.693,10.405.468,11.825A43.543,43.543,0,0,0,0,16.172H16.449V3.02q-1.594-.1-3.181-.34t-3.159-.62q-1.571-.379-3.122-.895T3.916,0Z" transform="translate(0)" fill="#fff"/>
    </g>
  </g>
  <g id="Group_105" data-name="Group 105" transform="translate(19.08 39.853)">
    <g id="Group_104" data-name="Group 104">
      <path id="Path_184" data-name="Path 184" d="M0,0A43.428,43.428,0,0,0,.451,4.418C.673,5.86.961,7.271,1.3,8.645s.741,2.714,1.182,4.012.924,2.557,1.437,3.771Q5.445,15.778,7,15.262t3.123-.9q1.572-.379,3.16-.62t3.182-.34V0Z" transform="translate(0)" fill="#fff"/>
    </g>
  </g>
  <g id="Group_107" data-name="Group 107" transform="translate(14.051 0.973)">
    <g id="Group_106" data-name="Group 106">
      <path id="Path_185" data-name="Path 185" d="M0,7.308c.3.269.622.555.975.854s.733.61,1.14.929.841.647,1.3.978.945.666,1.455,1q.247.162.494.318t.5.309q.248.152.5.3t.5.292q.5-.964,1.027-1.924t1.1-1.913q.568-.954,1.173-1.9T11.4,4.665q.437-.642.873-1.254t.868-1.2q.432-.584.857-1.137T14.84,0A37.365,37.365,0,0,0,3.4,4.857,37.842,37.842,0,0,0,0,7.308Z" transform="translate(0)" fill="#fff"/>
    </g>
  </g>
  <g id="Group_109" data-name="Group 109" transform="translate(0.014 11.275)">
    <g id="Group_108" data-name="Group 108">
      <path id="Path_186" data-name="Path 186" d="M16.343,4.384c-.6-.394-1.162-.788-1.695-1.177s-1.034-.772-1.5-1.144-.9-.734-1.3-1.08S11.075.308,10.742,0A38.194,38.194,0,0,0,6.428,5.259a37.365,37.365,0,0,0-5.422,12.2A37.912,37.912,0,0,0,0,24.146H14.641q.1-1.941.358-3.895t.68-3.913q.42-1.959,1-3.921T18,8.5q.118-.312.239-.624t.248-.623q.126-.312.256-.623T19,6q-.337-.189-.672-.385t-.667-.4q-.332-.2-.662-.412T16.343,4.384Z" fill="#fff"/>
    </g>
  </g>
  <g id="Group_111" data-name="Group 111" transform="translate(0 39.852)">
    <g id="Group_110" data-name="Group 110">
      <path id="Path_187" data-name="Path 187" d="M18.009,15.917q-.751-1.991-1.337-3.987T15.664,7.941q-.421-1.993-.677-3.98T14.642,0H0A37.93,37.93,0,0,0,.981,6.759a37.362,37.362,0,0,0,2.158,6.4A37.448,37.448,0,0,0,6.42,19.078a38.2,38.2,0,0,0,4.352,5.306c.332-.307.7-.636,1.1-.981s.834-.705,1.3-1.076.966-.753,1.5-1.14,1.094-.779,1.688-1.172q.327-.216.656-.425t.661-.411q.332-.2.666-.4t.67-.384q-.133-.31-.262-.62t-.254-.62q-.125-.31-.246-.62T18.009,15.917Z" fill="#fff"/>
    </g>
  </g>
  <g id="Group_113" data-name="Group 113" transform="translate(56.498 39.852)">
    <g id="Group_112" data-name="Group 112">
      <path id="Path_188" data-name="Path 188" d="M4.375,0h0Q4.286,1.974,4.03,3.961t-.677,3.98Q2.932,9.934,2.345,11.93T1.008,15.917q-.118.312-.24.625t-.248.624q-.126.312-.256.624T0,18.414q.332.187.661.381t.657.394q.327.2.652.408t.647.421c.6.4,1.162.792,1.694,1.183s1.033.776,1.5,1.15.9.738,1.3,1.085.765.678,1.1.987a38.2,38.2,0,0,0,4.367-5.312,37.448,37.448,0,0,0,3.293-5.926,37.363,37.363,0,0,0,2.165-6.413A37.934,37.934,0,0,0,19.017,0H4.375Z" fill="#fff"/>
    </g>
  </g>
  <g id="Group_115" data-name="Group 115" transform="translate(56.493 11.236)">
    <g id="Group_114" data-name="Group 114">
      <path id="Path_189" data-name="Path 189" d="M8.229,0c-.331.309-.7.641-1.1.989S6.3,1.7,5.828,2.078s-.97.762-1.5,1.155-1.1.79-1.7,1.188q-.323.214-.648.422t-.653.408q-.328.2-.658.4T0,6.027q.134.313.265.627t.257.627q.127.314.249.627t.241.628q.738,1.957,1.317,3.919t1,3.921q.42,1.959.68,3.913t.358,3.895H19.008A37.911,37.911,0,0,0,18,17.481a37.362,37.362,0,0,0-2.167-6.348,37.453,37.453,0,0,0-3.274-5.868A38.2,38.2,0,0,0,8.229,0Z" transform="translate(0)" fill="#fff"/>
    </g>
  </g>
  <g id="Group_117" data-name="Group 117" transform="translate(46.669 62.285)">
    <g id="Group_116" data-name="Group 116">
      <path id="Path_190" data-name="Path 190" d="M9.872,1.2q-.24-.158-.482-.312t-.483-.3Q8.665.432,8.422.286T7.935,0Q7.44.964,6.909,1.923t-1.1,1.912q-.568.953-1.172,1.9T3.393,7.619q-.431.633-.861,1.238t-.856,1.181q-.426.576-.846,1.123T0,12.226a37.417,37.417,0,0,0,3.956-1.185A37.306,37.306,0,0,0,7.75,9.429a37.447,37.447,0,0,0,3.6-2.025,37.841,37.841,0,0,0,3.383-2.427c-.3-.27-.619-.557-.97-.857s-.731-.613-1.137-.933-.84-.65-1.3-.984S10.383,1.533,9.872,1.2Z" fill="#fff"/>
    </g>
  </g>
  <g id="Group_119" data-name="Group 119" transform="translate(39.973 57.698)">
    <g id="Group_118" data-name="Group 118">
      <path id="Path_191" data-name="Path 191" d="M0,0V17.8H.042c.46-.506.95-1.059,1.461-1.657S2.549,14.9,3.1,14.214s1.11-1.413,1.679-2.181S5.921,10.456,6.5,9.61q.513-.755,1.037-1.574t1.051-1.7q.526-.879,1.048-1.816t1.03-1.928Q9.367,2.04,8.052,1.6T5.4.837Q4.07.513,2.718.3T0,0Z" transform="translate(0 0)" fill="#fff"/>
    </g>
  </g>
  <g id="Group_121" data-name="Group 121" transform="translate(14.07 62.269)">
    <g id="Group_120" data-name="Group 120">
      <path id="Path_192" data-name="Path 192" d="M11.382,7.636q-.641-.94-1.246-1.889t-1.174-1.9q-.569-.955-1.1-1.916T6.832,0q-.249.143-.5.291t-.5.3Q5.59.743,5.343.9t-.493.317c-.508.333-.99.666-1.448,1s-.889.655-1.294.973-.784.627-1.136.925S.3,4.692,0,4.961A37.841,37.841,0,0,0,3.39,7.4,37.456,37.456,0,0,0,7,9.435a37.308,37.308,0,0,0,3.8,1.618,37.411,37.411,0,0,0,3.968,1.19q-.411-.518-.831-1.065T13.1,10.054q-.426-.576-.856-1.181T11.382,7.636Z" fill="#fff"/>
    </g>
  </g>
  <g id="Group_123" data-name="Group 123" transform="translate(24.875 57.698)">
    <g id="Group_122" data-name="Group 122">
      <path id="Path_193" data-name="Path 193" d="M10.666,0Q9.3.094,7.95.3T5.265.835Q3.93,1.158,2.614,1.6T0,2.586q.516,1.007,1.048,1.96T2.114,6.391q.535.893,1.069,1.724t1.056,1.6c.57.837,1.141,1.636,1.7,2.395S7.062,13.583,7.6,14.259s1.068,1.311,1.574,1.9.989,1.137,1.443,1.637h.046V0Z" transform="translate(0 0)" fill="#fff"/>
    </g>
  </g>
</svg>
