<svg id="Group_74" data-name="Group 74" xmlns="http://www.w3.org/2000/svg" width="69.733" height="73.114" viewBox="0 0 69.733 73.114">
  <path id="Path_135" data-name="Path 135" d="M12.852,6.426A6.428,6.428,0,0,0,.506,3.927,6.391,6.391,0,0,0,0,6.426v6.426H12.852Z" transform="translate(51.409 12.852)" fill="#fff"/>
  <path id="Path_136" data-name="Path 136" d="M0,7.313,4.284,11.6v5.825H8.568V11.6l4.284-4.284V0H0Z" transform="translate(51.409 55.693)" fill="#fff"/>
  <path id="Path_137" data-name="Path 137" d="M18.324,13.212a12.325,12.325,0,0,1-2.3-1.982,12.268,12.268,0,0,1-3.172-8.243V0H0V21.42H12.852V14.11q.34.375.7.731t.752.69q.387.334.8.646t.842.6Z" transform="translate(51.409 29.988)" fill="#fff"/>
  <path id="Path_138" data-name="Path 138" d="M11.6,0,0,11.6H11.6Z" transform="translate(1.255 1.255)" fill="#fff"/>
  <path id="Path_139" data-name="Path 139" d="M17.136,17.136H0V73.114H47.124V0H17.136ZM12.852,64.261H8.568V59.977h4.284Zm0-8.568H8.568V51.408h4.284Zm0-8.568H8.568V42.84h4.284Zm25.7,17.136H17.136V59.977h21.42Zm0-8.568H17.136V51.408h21.42Zm0-8.568H17.136V42.84h21.42ZM27.846,25.7a6.4,6.4,0,0,1-5.217-10.155,6.5,6.5,0,0,1,3.075-2.3V8.568h4.284v4.679a6.5,6.5,0,0,1,3.075,2.3,6.327,6.327,0,0,1,1.209,3.729H29.988a2.142,2.142,0,1,0-2.142,2.142,6.4,6.4,0,0,1,5.217,10.155,6.5,6.5,0,0,1-3.075,2.3v4.679H25.7V33.878a6.5,6.5,0,0,1-3.075-2.3,6.327,6.327,0,0,1-1.209-3.729H25.7A2.142,2.142,0,1,0,27.846,25.7Z" fill="#fff"/>
</svg>
