<svg id="Group_75" data-name="Group 75" xmlns="http://www.w3.org/2000/svg" width="65.487" height="74.196" viewBox="0 0 65.487 74.196">
  <path id="Path_140" data-name="Path 140" d="M7.684,0A7.678,7.678,0,0,0,0,7.684V30.612H13.194a2.172,2.172,0,0,0,2.174-2.174V7.684A7.678,7.678,0,0,0,7.684,0Z" transform="translate(50.119)" fill="#fff"/>
  <path id="Path_141" data-name="Path 141" d="M21.927,54.633A23.78,23.78,0,0,1,23.8,45.352,23.9,23.9,0,0,1,45.916,30.723V8.62A12.981,12.981,0,0,1,46.142,6.2a12.884,12.884,0,0,1,1.686-4.352A13.054,13.054,0,0,1,49.2,0H10.866A10.866,10.866,0,0,0,0,10.866V71.983a2.137,2.137,0,0,0,.395,1.259,2.223,2.223,0,0,0,2.194.881,2.137,2.137,0,0,0,1.156-.636l2.781-2.9,2.937,2.939a2.174,2.174,0,0,0,3.074,0l2.784-2.782,2.811,2.788a2.173,2.173,0,0,0,3.062,0l2.856-2.832,2.858,2.832a2.171,2.171,0,0,0,3.059,0l.554-.548A24,24,0,0,1,24.2,64.809a23.82,23.82,0,0,1-2.276-10.176Zm-4.342-37.1h4.29v-4.29a2.174,2.174,0,1,1,4.347,0v4.29h4.29a2.174,2.174,0,1,1,0,4.347h-4.29v4.29a2.174,2.174,0,1,1-4.347,0v-4.29h-4.29a2.174,2.174,0,1,1,0-4.347ZM11.006,32.758H25.643a2.174,2.174,0,1,1,0,4.347H11.006a2.174,2.174,0,1,1,0-4.347Zm7.253,21.723H10.992a2.174,2.174,0,1,1,0-4.347h7.267a2.174,2.174,0,1,1,0,4.347Zm1.449-8.68H11a2.174,2.174,0,1,1,0-4.347h8.71a2.174,2.174,0,1,1,0,4.347Z" fill="#fff"/>
  <path id="Path_142" data-name="Path 142" d="M19.563,0a19.569,19.569,0,0,0-7.608,37.587A19.563,19.563,0,0,0,27.171,1.54,19.456,19.456,0,0,0,19.563,0Zm2.181,27.935v.207a2.174,2.174,0,1,1-4.347,0V28.1c-.243-.058-.482-.126-.715-.2s-.459-.16-.678-.252-.429-.191-.63-.3-.391-.217-.57-.334a2.174,2.174,0,1,1,2.38-3.638,3.571,3.571,0,0,0,.755.366,4.606,4.606,0,0,0,.847.212A3.765,3.765,0,0,0,19.6,24a1.883,1.883,0,0,0,.66-.152,1.59,1.59,0,0,0,.327-.207,1.685,1.685,0,0,0,.268-.276,1.521,1.521,0,0,0,.19-.319,1.179,1.179,0,0,0,.093-.338.9.9,0,0,0-.187-.646,2.109,2.109,0,0,0-.585-.509,5.835,5.835,0,0,0-.774-.4c-.266-.115-.529-.216-.754-.3-.341-.135-.7-.277-1.068-.444a8.816,8.816,0,0,1-1.1-.584,5.891,5.891,0,0,1-1.024-.817,5.154,5.154,0,0,1-.855-1.141,4.662,4.662,0,0,1-.576-2,5.031,5.031,0,0,1,.309-2.025,5.215,5.215,0,0,1,1.093-1.764A5.1,5.1,0,0,1,17.4,10.85v-.109a2.173,2.173,0,0,1,4.346-.035q.293.092.574.211a5.721,5.721,0,0,1,.543.265,5.246,5.246,0,0,1,.5.319,4.8,4.8,0,0,1,.458.373,2.174,2.174,0,1,1-2.948,3.2,1.087,1.087,0,0,0-.386-.207,2.407,2.407,0,0,0-.537-.109,2.331,2.331,0,0,0-.56.014,1.139,1.139,0,0,0-.455.16.867.867,0,0,0-.2.193.892.892,0,0,0-.127.229.692.692,0,0,0-.046.225.365.365,0,0,0,.039.183,1.555,1.555,0,0,0,.669.546c.318.165.719.323,1.162.5s.928.37,1.417.609a8.141,8.141,0,0,1,1.435.877A5.679,5.679,0,0,1,25.166,20.8a5.286,5.286,0,0,1,.226,2.824,5.709,5.709,0,0,1-1.214,2.566,5.881,5.881,0,0,1-2.434,1.741Z" transform="translate(26.275 35.069)" fill="#fff"/>
</svg>
