<svg id="Group_76" data-name="Group 76" xmlns="http://www.w3.org/2000/svg" width="79.828" height="79.84" viewBox="0 0 79.828 79.84">
  <g id="medical-list" transform="translate(0)">
    <g id="Group_78" data-name="Group 78" transform="translate(0 9.668)">
      <g id="Group_77" data-name="Group 77">
        <path id="Path_149" data-name="Path 149" d="M57.3,49.824a1.853,1.853,0,0,1-.249.207c-.088.062-.18.117-.273.171s-.188.105-.282.158-.186.108-.276.169v7.948a2.336,2.336,0,0,1-2.339,2.339H11.7a2.336,2.336,0,0,1-2.339-2.339V0H7.017A6.977,6.977,0,0,0,4.355.519a7.076,7.076,0,0,0-2.1,1.339A7.207,7.207,0,0,0,.816,3.69a5.945,5.945,0,0,0-.688,2c-.017.1-.034.2-.049.31s-.029.217-.041.33S.017,6.554.01,6.67,0,6.9,0,7.017V63.154a7.051,7.051,0,0,0,2,4.918A6.925,6.925,0,0,0,4.223,69.6a7.042,7.042,0,0,0,2.794.568H58.554a7.051,7.051,0,0,0,4.918-2A6.924,6.924,0,0,0,65,65.949a7.042,7.042,0,0,0,.568-2.794V41.53Z" fill="#fff"/>
      </g>
    </g>
    <g id="Group_80" data-name="Group 80" transform="translate(56.215 9.668)">
      <g id="Group_79" data-name="Group 79">
        <path id="Path_150" data-name="Path 150" d="M2.339,0H0V17.818c2.448-2.448,4.18-4.184,5.421-5.427S7.412,10.4,7.893,9.926s.695-.67.864-.809.294-.218.6-.457V7.017A7.066,7.066,0,0,0,8.8,4.24,6.926,6.926,0,0,0,7.28,2.014,7.03,7.03,0,0,0,2.339,0Z" transform="translate(0)" fill="#fff"/>
      </g>
    </g>
    <g id="Group_82" data-name="Group 82" transform="translate(66.141 20.301)">
      <g id="Group_81" data-name="Group 81">
        <path id="Path_151" data-name="Path 151" d="M1.659,2.216,0,3.875l9.906,9.9,1.608-1.611a6.5,6.5,0,0,0,2.166-5.122,7.544,7.544,0,0,0-2.089-4.735A7.12,7.12,0,0,0,7,.017,6.752,6.752,0,0,0,1.659,2.216Z" fill="#fff"/>
      </g>
    </g>
    <g id="Group_84" data-name="Group 84" transform="translate(41.432 62.372)">
      <g id="Group_83" data-name="Group 83">
        <path id="Path_152" data-name="Path 152" d="M2.554,2.953q-.308.12-.623.21t-.634.15q-.32.06-.644.09T0,3.433H10.105V0Z" transform="translate(0 0)" fill="#fff"/>
      </g>
    </g>
    <g id="Group_86" data-name="Group 86" transform="translate(14.112)">
      <g id="Group_85" data-name="Group 85">
        <path id="Path_153" data-name="Path 153" d="M25.1,45.311q.142-.35.311-.672a7.187,7.187,0,0,1,.364-.62,6.826,6.826,0,0,1,.89-1.092L37.425,32.164V9.512H34.677a7.013,7.013,0,0,0-6.608-4.658L25.33,4.678A7.016,7.016,0,0,0,18.712,0a6.559,6.559,0,0,0-2.185.376,7.025,7.025,0,0,0-1.905,1.03,7.51,7.51,0,0,0-2.528,3.448H9.356A6.976,6.976,0,0,0,5.276,6.166,7.052,7.052,0,0,0,2.748,9.512H0V65.805H27.319a6.955,6.955,0,0,1-3.359-.852,7.088,7.088,0,0,1-3.609-5.3,6.956,6.956,0,0,1,.445-3.444Zm5.311-16.931H16.373a2.231,2.231,0,0,1-1.736-.731,2.522,2.522,0,0,1,0-3.216,2.233,2.233,0,0,1,1.74-.731H30.408a2.231,2.231,0,0,1,1.736.731,2.522,2.522,0,0,1,0,3.216A2.233,2.233,0,0,1,30.408,28.381ZM9.356,9.532h4.678a2.336,2.336,0,0,0,2.339-2.339,2.527,2.527,0,0,1,.184-.937,2.692,2.692,0,0,1,.5-.8A2.442,2.442,0,0,1,17.8,4.89a2.06,2.06,0,0,1,1.82,0,2.442,2.442,0,0,1,.744.563,2.692,2.692,0,0,1,.5.8,2.527,2.527,0,0,1,.184.937,2.336,2.336,0,0,0,2.339,2.339h4.678a2.331,2.331,0,0,1,1.653.686,2.349,2.349,0,0,1,.5.744,2.337,2.337,0,0,1,0,1.818,2.354,2.354,0,0,1-1.245,1.246,2.325,2.325,0,0,1-.91.184H9.356A2.331,2.331,0,0,1,7.7,13.524a2.349,2.349,0,0,1-.5-.744,2.337,2.337,0,0,1,0-1.818A2.354,2.354,0,0,1,8.446,9.717,2.325,2.325,0,0,1,9.356,9.532ZM7.017,23.7a2.332,2.332,0,1,1-.91.184A2.332,2.332,0,0,1,7.017,23.7Zm0,9.356a2.332,2.332,0,1,1-.91.184A2.332,2.332,0,0,1,7.017,33.059Zm9.356,23.391H14.034v2.339a2.231,2.231,0,0,1-.731,1.736,2.522,2.522,0,0,1-3.216,0,2.233,2.233,0,0,1-.731-1.74V56.449H7.017a2.231,2.231,0,0,1-1.736-.731,2.522,2.522,0,0,1,0-3.216,2.233,2.233,0,0,1,1.74-.731H9.356V49.432a2.231,2.231,0,0,1,.731-1.736,2.522,2.522,0,0,1,3.216,0,2.233,2.233,0,0,1,.731,1.74v2.339h2.339a2.231,2.231,0,0,1,1.736.731,2.522,2.522,0,0,1,0,3.216A2.233,2.233,0,0,1,16.373,56.449Zm0-18.712a2.231,2.231,0,0,1-1.736-.731,2.522,2.522,0,0,1,0-3.216,2.233,2.233,0,0,1,1.74-.731h13.9a2.231,2.231,0,0,1,1.736.731,2.522,2.522,0,0,1,0,3.216,2.233,2.233,0,0,1-1.74.731Z" transform="translate(0)" fill="#fff"/>
      </g>
    </g>
    <g id="Group_88" data-name="Group 88" transform="translate(39.089 48.454)">
      <g id="Group_87" data-name="Group 87">
        <path id="Path_154" data-name="Path 154" d="M3.909,0,.168,9.476a2.3,2.3,0,0,0-.11,1.373A2.387,2.387,0,0,0,1.81,12.617a2.31,2.31,0,0,0,1.384-.1l9.468-3.7Z" transform="translate(0 0)" fill="#fff"/>
      </g>
    </g>
    <g id="Group_90" data-name="Group 90" transform="translate(45.742 27.484)">
      <g id="Group_89" data-name="Group 89">
        <path id="Path_155" data-name="Path 155" d="M31.963,8.291,30.287,6.615,27,9.907,17.092,0,0,17.09l9.89,9.961L26.982,9.926,28.653,11.6a2.328,2.328,0,0,1,0,3.294l-6.6,6.643a2.337,2.337,0,0,0,.011,3.308,2.371,2.371,0,0,0,.367.3,2.337,2.337,0,0,0,2.943-.306l6.59-6.638A6.955,6.955,0,0,0,33.5,15.882a7.017,7.017,0,0,0-1.534-7.591Z" transform="translate(0)" fill="#fff"/>
      </g>
    </g>
  </g>
</svg>
