<svg xmlns="http://www.w3.org/2000/svg" width="64.261" height="73.114" viewBox="0 0 64.261 73.114">
  <g id="prescription" style="isolation: isolate">
    <g id="Group_124" data-name="Group 124">
      <path id="Path_143" data-name="Path 143" d="M17.136,23.7V8.711a8.7,8.7,0,0,0-.673-3.357,8.848,8.848,0,0,0-1.836-2.773A8.649,8.649,0,0,0,11.9.7a8.342,8.342,0,0,0-6.67,0A8.649,8.649,0,0,0,2.51,2.581,8.848,8.848,0,0,0,.673,5.353,8.7,8.7,0,0,0,0,8.711V25.847H14.994A2.14,2.14,0,0,0,17.136,23.7Z" transform="translate(47.124)" fill="#fff"/>
      <path id="Path_144" data-name="Path 144" d="M2.142,73.114H36.469a10.558,10.558,0,0,1-.917-1.444,11.15,11.15,0,0,1-1.128-3.33,10.722,10.722,0,0,1,5.017-10.956,10.646,10.646,0,0,1,3.4-1.332V8.711a12.872,12.872,0,0,1,.233-2.434,13.215,13.215,0,0,1,1.72-4.419A12.784,12.784,0,0,1,46.183,0H10.71A10.456,10.456,0,0,0,6.541.864a10.794,10.794,0,0,0-3.4,2.344,10.993,10.993,0,0,0-2.3,3.453A10.837,10.837,0,0,0,0,10.853V70.972a2.14,2.14,0,0,0,2.142,2.142ZM17.136,12.995h2.142V10.853a2.142,2.142,0,1,1,4.284,0v2.142H25.7a2.142,2.142,0,1,1,0,4.284H23.562v2.142a2.142,2.142,0,1,1-4.284,0V17.279H17.136a2.142,2.142,0,1,1,0-4.284Zm0,12.852H34.272a2.142,2.142,0,1,1,0,4.284H17.136a2.142,2.142,0,1,1,0-4.284Zm0,8.568H34.272a2.142,2.142,0,1,1,0,4.284H17.136a2.142,2.142,0,1,1,0-4.284Zm0,8.568H34.272a2.142,2.142,0,1,1,0,4.284H17.136a2.142,2.142,0,1,1,0-4.284Zm0,8.568H34.272a2.142,2.142,0,1,1,0,4.284H17.136a2.142,2.142,0,1,1,0-4.284Zm-8.568-25.7a2.135,2.135,0,1,1-.834.168A2.135,2.135,0,0,1,8.568,25.847Zm0,8.568a2.135,2.135,0,1,1-.834.168A2.135,2.135,0,0,1,8.568,34.415Zm0,8.568a2.135,2.135,0,1,1-.834.168A2.135,2.135,0,0,1,8.568,42.983Zm0,8.568a2.135,2.135,0,1,1-.834.168A2.135,2.135,0,0,1,8.568,51.551Z" fill="#fff"/>
      <path id="Path_145" data-name="Path 145" d="M10.71,12.995V0H6.426A6.421,6.421,0,0,0,0,6.426,6.567,6.567,0,0,0,.5,8.95a6.7,6.7,0,0,0,1.377,2.092,6.5,6.5,0,0,0,2.043,1.426,6.189,6.189,0,0,0,2.5.527Z" transform="translate(38.556 60.119)" fill="#fff"/>
      <path id="Path_146" data-name="Path 146" d="M10.71,6.426A6.421,6.421,0,0,0,4.284,0H0V12.995H4.284a6.189,6.189,0,0,0,2.5-.527,6.5,6.5,0,0,0,2.043-1.426A6.7,6.7,0,0,0,10.205,8.95,6.567,6.567,0,0,0,10.71,6.426Z" transform="translate(53.55 60.119)" fill="#fff"/>
    </g>
  </g>
</svg>
