<svg xmlns="http://www.w3.org/2000/svg" width="21.903" height="21.88" viewBox="0 0 21.903 21.88">
  <g id="pencil" transform="translate(0 -0.246)">
    <path id="Path_140" data-name="Path 140" d="M13.526,82.473,1.474,94.525a.48.48,0,0,0-.125.22L.013,100.107a.474.474,0,0,0,.46.589.47.47,0,0,0,.115-.014L5.95,99.346a.474.474,0,0,0,.22-.125L18.222,87.169Zm0,0" transform="translate(0 -78.569)" fill="#585858"/>
    <path id="Path_141" data-name="Path 141" d="M340.668,2.26,339.326.919a2.429,2.429,0,0,0-3.355,0l-1.643,1.643,4.7,4.7,1.643-1.643a2.373,2.373,0,0,0,0-3.355Zm0,0" transform="translate(-319.46)" fill="#585858"/>
  </g>
</svg>
