<svg xmlns="http://www.w3.org/2000/svg" width="23.495" height="25.2" viewBox="0 0 23.495 25.2">
  <g id="drawing" transform="translate(0)">
    <path id="Path_195" data-name="Path 195" d="M81.647,4.853,76.989.2a.668.668,0,0,0-.944,0L64.463,11.777a.669.669,0,0,0-.183.342l-1.154,5.812a.668.668,0,0,0,.785.785l5.812-1.154a.668.668,0,0,0,.342-.183L81.647,5.8A.668.668,0,0,0,81.647,4.853Zm-16.747,11,.6-3.038,3.522,3.522-3.038.6Z" transform="translate(-58.348 0)" fill="#616161"/>
    <path id="Path_196" data-name="Path 196" d="M27.059,213.645c-6.385-2.673-10.542,1.748-11.784,2.419-1.587.858-3.823,1.867-4.342.121-.314-1.053,1.382-2.179,2.5-2.53.819-.256.469-1.545-.355-1.288-1.743.545-3.823,2.013-3.458,4.08.271,1.536,2.2,2.937,5.908.989,2.7-1.416,4.531-4.348,10.213-2.829a5.629,5.629,0,0,1,4.022,3.566c.282.807,1.572.46,1.288-.355A6.884,6.884,0,0,0,27.059,213.645Z" transform="translate(-9.582 -193.433)" fill="#616161"/>
  </g>
</svg>
