<svg xmlns="http://www.w3.org/2000/svg" width="57.257" height="57.257" viewBox="0 0 57.257 57.257">
  <g id="Group_179" data-name="Group 179" transform="translate(-639.935 -159)">
    <path id="Path_260" data-name="Path 260" d="M24,308.152H75.761V288H24Zm25.88-12.824H47.889V293.5H49.88Zm5.972,0h5.972v-5.5H67.8v5.5H73.77v5.5H67.8v5.5H61.825v-5.5H55.853Zm-29.862-5.5H49.88v1.832H25.991ZM45.9,293.5v1.832H29.972V293.5Zm-19.908,0h1.991v1.832H25.991Zm0,3.664H49.88v1.832H25.991Zm0,0" transform="translate(618.683 -91.896)" fill="#48a3da"/>
    <path id="Path_261" data-name="Path 261" d="M96,149.2v.321a1.832,1.832,0,0,0,3.664,0V149.2a5.393,5.393,0,0,1-3.664,0Zm0,0" transform="translate(554.844 28.268)" fill="#48a3da"/>
    <path id="Path_262" data-name="Path 262" d="M33.832,166.137h1.832V169.8H46.656v-3.664h1.832V169.8H50.32v-2.956a2.762,2.762,0,0,0-1.783-2.574L44.6,162.793a3.642,3.642,0,0,1-6.868,0l-3.944,1.478A2.762,2.762,0,0,0,32,166.845V169.8h1.832Zm0,0" transform="translate(611.599 16.516)" fill="#48a3da"/>
    <path id="Path_263" data-name="Path 263" d="M301.5,332.824h1.832v-5.5h5.5V325.5h-5.5V320H301.5v5.5H296v1.832h5.5Zm0,0" transform="translate(380.955 -120.231)" fill="#48a3da"/>
    <path id="Path_264" data-name="Path 264" d="M62.358,5.042l1.086-.725,1.068,1.068a3.53,3.53,0,0,0,2.48,1.027,3.624,3.624,0,0,1,1.832.509V6.412A6.412,6.412,0,0,0,56,6.412v.509a3.624,3.624,0,0,1,1.832-.509,8.131,8.131,0,0,0,4.526-1.37Zm0,0" transform="translate(590.347 159)" fill="#48a3da"/>
    <path id="Path_265" data-name="Path 265" d="M87.328,63.516V59.767a5.376,5.376,0,0,1-2.859-1.479l-.007-.007A9.946,9.946,0,0,1,80,59.787v3.729a3.664,3.664,0,0,0,7.328,0Zm0,0" transform="translate(568.92 107.392)" fill="#48a3da"/>
    <path id="Path_266" data-name="Path 266" d="M160,77.377a1.816,1.816,0,0,0,0-3.155Zm0,0" transform="translate(498.703 93.978)" fill="#48a3da"/>
    <path id="Path_267" data-name="Path 267" d="M56.916,77.384V74.23a1.816,1.816,0,0,0,0,3.154Zm0,0" transform="translate(589.347 93.971)" fill="#48a3da"/>
    <path id="Path_268" data-name="Path 268" d="M272,160h5.5v7.328H272Zm0,0" transform="translate(401.778 18.971)" fill="#48a3da"/>
    <path id="Path_269" data-name="Path 269" d="M56.269,240H.987a.954.954,0,0,0-.987.916v1.832a.954.954,0,0,0,.987.916H56.269a.954.954,0,0,0,.987-.916v-1.832A.955.955,0,0,0,56.269,240Zm0,0" transform="translate(639.935 -51.226)" fill="#48a3da"/>
    <path id="Path_270" data-name="Path 270" d="M336,176h5.5v5.5H336Zm0,0" transform="translate(345.741 4.899)" fill="#48a3da"/>
    <path id="Path_271" data-name="Path 271" d="M400,64h3.664v5.5H400Zm0,0" transform="translate(290.863 102.328)" fill="#48a3da"/>
    <path id="Path_272" data-name="Path 272" d="M240,0V12.824h1.832V1.832h9.16V3.664h7.328V5.5h5.5v7.328h1.832V0Zm0,0" transform="translate(431.543 159)" fill="#48a3da"/>
    <path id="Path_273" data-name="Path 273" d="M336,48h5.5v7.328H336Zm0,0" transform="translate(346.741 116.496)" fill="#48a3da"/>
    <path id="Path_274" data-name="Path 274" d="M272,32h5.5v9.16H272Zm0,0" transform="translate(402.778 130.664)" fill="#48a3da"/>
  </g>
</svg>
